<svg width="1200" height="320" viewBox="0 0 1200 320" fill="none" xmlns="http://www.w3.org/2000/svg" role="img" aria-labelledby="title desc">
  <title id="title">Talysson Oliveira — Full-stack product engineer</title>
  <desc id="desc">A refined dark profile banner with editorial typography, gradient lighting and a polished system of floating product cards representing product engineering and workflow automation.</desc>
  <defs>
    <linearGradient id="bg" x1="48" y1="22" x2="1140" y2="304" gradientUnits="userSpaceOnUse">
      <stop stop-color="#08101C"/>
      <stop offset="0.55" stop-color="#0D1526"/>
      <stop offset="1" stop-color="#140E23"/>
    </linearGradient>
    <linearGradient id="accent" x1="202" y1="272" x2="1064" y2="48" gradientUnits="userSpaceOnUse">
      <stop stop-color="#22D3EE"/>
      <stop offset="0.48" stop-color="#6366F1"/>
      <stop offset="1" stop-color="#C084FC"/>
    </linearGradient>
    <linearGradient id="panelStroke" x1="692" y1="44" x2="1134" y2="286" gradientUnits="userSpaceOnUse">
      <stop stop-color="#67E8F9" stop-opacity="0.42"/>
      <stop offset="0.45" stop-color="#818CF8" stop-opacity="0.25"/>
      <stop offset="1" stop-color="#D8B4FE" stop-opacity="0.2"/>
    </linearGradient>
    <linearGradient id="panelFill" x1="708" y1="50" x2="1122" y2="278" gradientUnits="userSpaceOnUse">
      <stop stop-color="#101A2D" stop-opacity="0.84"/>
      <stop offset="1" stop-color="#0C1322" stop-opacity="0.74"/>
    </linearGradient>
    <radialGradient id="glowA" cx="0" cy="0" r="1" gradientUnits="userSpaceOnUse" gradientTransform="translate(152 42) rotate(28) scale(360 248)">
      <stop stop-color="#0EA5E9" stop-opacity="0.24"/>
      <stop offset="1" stop-color="#0EA5E9" stop-opacity="0"/>
    </radialGradient>
    <radialGradient id="glowB" cx="0" cy="0" r="1" gradientUnits="userSpaceOnUse" gradientTransform="translate(1088 260) rotate(-156) scale(430 280)">
      <stop stop-color="#A855F7" stop-opacity="0.22"/>
      <stop offset="1" stop-color="#A855F7" stop-opacity="0"/>
    </radialGradient>
    <radialGradient id="glowC" cx="0" cy="0" r="1" gradientUnits="userSpaceOnUse" gradientTransform="translate(920 70) rotate(90) scale(110 180)">
      <stop stop-color="#34D399" stop-opacity="0.12"/>
      <stop offset="1" stop-color="#34D399" stop-opacity="0"/>
    </radialGradient>
    <pattern id="grid" width="38" height="38" patternUnits="userSpaceOnUse">
      <path d="M38 0H0V38" stroke="#FFFFFF" stroke-opacity="0.045"/>
    </pattern>
    <filter id="blurXL" x="-30%" y="-30%" width="160%" height="160%">
      <feGaussianBlur stdDeviation="36"/>
    </filter>
    <filter id="blurMd" x="-20%" y="-20%" width="140%" height="140%">
      <feGaussianBlur stdDeviation="18"/>
    </filter>
  </defs>

  <rect width="1200" height="320" rx="28" fill="url(#bg)"/>
  <rect width="1200" height="320" rx="28" fill="url(#grid)"/>
  <rect width="1200" height="320" rx="28" fill="url(#glowA)"/>
  <rect width="1200" height="320" rx="28" fill="url(#glowB)"/>
  <rect width="1200" height="320" rx="28" fill="url(#glowC)"/>

  <circle cx="1038" cy="70" r="92" fill="#6366F1" fill-opacity="0.10" filter="url(#blurXL)"/>
  <circle cx="1124" cy="244" r="104" fill="#A855F7" fill-opacity="0.10" filter="url(#blurXL)"/>
  <circle cx="878" cy="58" r="56" fill="#22D3EE" fill-opacity="0.09" filter="url(#blurMd)"/>

  <rect x="72" y="54" width="116" height="30" rx="15" fill="#FFFFFF" fill-opacity="0.08" stroke="#FFFFFF" stroke-opacity="0.14"/>
  <text x="130" y="74" text-anchor="middle" fill="#D7DEE8" font-family="Inter, ui-sans-serif, system-ui, -apple-system, BlinkMacSystemFont, Segoe UI, sans-serif" font-size="13" font-weight="650" letter-spacing="1.4">LONDON · UK</text>

  <text x="72" y="148" fill="#F8FAFC" font-family="Inter, ui-sans-serif, system-ui, -apple-system, BlinkMacSystemFont, Segoe UI, sans-serif" font-size="58" font-weight="740" letter-spacing="-1.8">Talysson Oliveira</text>
  <text x="74" y="192" fill="#D5DCE7" font-family="Inter, ui-sans-serif, system-ui, -apple-system, BlinkMacSystemFont, Segoe UI, sans-serif" font-size="24" font-weight="540">Full-stack product engineer</text>
  <text x="74" y="236" fill="#94A3B8" font-family="Inter, ui-sans-serif, system-ui, -apple-system, BlinkMacSystemFont, Segoe UI, sans-serif" font-size="18" font-weight="430">Software that still makes sense after the next ten features.</text>

  <g>
    <rect x="72" y="264" width="116" height="28" rx="14" fill="#0F172A" fill-opacity="0.72" stroke="#1E293B"/>
    <rect x="198" y="264" width="136" height="28" rx="14" fill="#0F172A" fill-opacity="0.72" stroke="#1E293B"/>
    <rect x="344" y="264" width="128" height="28" rx="14" fill="#0F172A" fill-opacity="0.72" stroke="#1E293B"/>
    <circle cx="87" cy="278" r="4" fill="#22D3EE"/>
    <circle cx="213" cy="278" r="4" fill="#6366F1"/>
    <circle cx="359" cy="278" r="4" fill="#A855F7"/>
    <text x="99" y="282" fill="#D8E1EC" font-family="Inter, ui-sans-serif, system-ui, -apple-system, BlinkMacSystemFont, Segoe UI, sans-serif" font-size="13" font-weight="520">TypeScript</text>
    <text x="225" y="282" fill="#D8E1EC" font-family="Inter, ui-sans-serif, system-ui, -apple-system, BlinkMacSystemFont, Segoe UI, sans-serif" font-size="13" font-weight="520">Product systems</text>
    <text x="371" y="282" fill="#D8E1EC" font-family="Inter, ui-sans-serif, system-ui, -apple-system, BlinkMacSystemFont, Segoe UI, sans-serif" font-size="13" font-weight="520">AI workflows</text>
  </g>

  <path d="M72 304H358" stroke="url(#accent)" stroke-width="3" stroke-linecap="round"/>

  <rect x="688" y="36" width="450" height="248" rx="28" fill="url(#panelFill)" stroke="url(#panelStroke)"/>
  <path d="M901 126C947 81 1016 72 1071 98C1125 124 1152 188 1137 240" stroke="#1F2A3D" stroke-width="2" opacity="0.7"/>
  <path d="M888 143C923 106 978 94 1022 109" stroke="#334155" stroke-width="2" opacity="0.55"/>
  <path d="M943 233C998 238 1040 226 1072 197" stroke="#2A3447" stroke-width="2" opacity="0.55"/>
  <circle cx="1068" cy="110" r="34" fill="#8B5CF6" fill-opacity="0.08"/>
  <circle cx="1104" cy="212" r="48" fill="#8B5CF6" fill-opacity="0.06"/>
  <circle cx="923" cy="92" r="24" fill="#22D3EE" fill-opacity="0.07"/>

  <g>
    <rect x="708" y="54" width="132" height="30" rx="15" fill="#101828" stroke="#243047"/>
    <circle cx="726" cy="69" r="4.5" fill="#22D3EE"/>
    <text x="738" y="73" fill="#E2E8F0" font-family="Inter, ui-sans-serif, system-ui, -apple-system, BlinkMacSystemFont, Segoe UI, sans-serif" font-size="13" font-weight="560">CURRENT BUILD FOCUS</text>

    <rect x="972" y="56" width="144" height="26" rx="13" fill="#0F172A" fill-opacity="0.78" stroke="#263247"/>
    <text x="1044" y="73" text-anchor="middle" fill="#CBD5E1" font-family="Inter, ui-sans-serif, system-ui, -apple-system, BlinkMacSystemFont, Segoe UI, sans-serif" font-size="12.5" font-weight="520">domain-first systems</text>
  </g>

  <g>
    <rect x="726" y="112" width="176" height="88" rx="22" fill="#0F172A" fill-opacity="0.95" stroke="#24344C"/>
    <circle cx="756" cy="142" r="10" fill="#0B1220" stroke="#2A3A53"/>
    <circle cx="756" cy="142" r="4" fill="#22D3EE"/>
    <text x="778" y="138" fill="#F8FAFC" font-family="Inter, ui-sans-serif, system-ui, -apple-system, BlinkMacSystemFont, Segoe UI, sans-serif" font-size="18" font-weight="640">Aurora</text>
    <text x="778" y="157" fill="#94A3B8" font-family="Inter, ui-sans-serif, system-ui, -apple-system, BlinkMacSystemFont, Segoe UI, sans-serif" font-size="13.5" font-weight="480">AI-native CRM</text>
    <rect x="746" y="171" width="56" height="8" rx="4" fill="#162336"/>
    <rect x="746" y="171" width="36" height="8" rx="4" fill="#22D3EE"/>
    <rect x="810" y="171" width="48" height="8" rx="4" fill="#162336"/>
    <rect x="810" y="171" width="27" height="8" rx="4" fill="#818CF8"/>
    <text x="746" y="192" fill="#7C8AA0" font-family="Inter, ui-sans-serif, system-ui, -apple-system, BlinkMacSystemFont, Segoe UI, sans-serif" font-size="11.5" font-weight="500">workflow automation · lead ops</text>
  </g>

  <g>
    <rect x="850" y="92" width="246" height="112" rx="24" fill="#101827" fill-opacity="0.96" stroke="#2A3C56"/>
    <text x="874" y="122" fill="#F8FAFC" font-family="Inter, ui-sans-serif, system-ui, -apple-system, BlinkMacSystemFont, Segoe UI, sans-serif" font-size="18" font-weight="640">Product systems</text>
    <text x="874" y="141" fill="#94A3B8" font-family="Inter, ui-sans-serif, system-ui, -apple-system, BlinkMacSystemFont, Segoe UI, sans-serif" font-size="13.5" font-weight="480">from domain to delivery</text>

    <rect x="874" y="158" width="62" height="24" rx="12" fill="#0D1523" stroke="#243247"/>
    <rect x="946" y="158" width="74" height="24" rx="12" fill="#0D1523" stroke="#243247"/>
    <rect x="1030" y="158" width="44" height="24" rx="12" fill="#0D1523" stroke="#243247"/>
    <text x="905" y="174" text-anchor="middle" fill="#D5DEEA" font-family="Inter, ui-sans-serif, system-ui, -apple-system, BlinkMacSystemFont, Segoe UI, sans-serif" font-size="12" font-weight="520">domain</text>
    <text x="983" y="174" text-anchor="middle" fill="#D5DEEA" font-family="Inter, ui-sans-serif, system-ui, -apple-system, BlinkMacSystemFont, Segoe UI, sans-serif" font-size="12" font-weight="520">workflow</text>
    <text x="1052" y="174" text-anchor="middle" fill="#D5DEEA" font-family="Inter, ui-sans-serif, system-ui, -apple-system, BlinkMacSystemFont, Segoe UI, sans-serif" font-size="12" font-weight="520">ship</text>

    <path d="M892 187C916 187 928 182 944 170" stroke="#334155" stroke-width="2.5" stroke-linecap="round"/>
    <path d="M1020 170C1030 170 1037 173 1043 178" stroke="#334155" stroke-width="2.5" stroke-linecap="round"/>
    <circle cx="892" cy="187" r="4" fill="#22D3EE"/>
    <circle cx="944" cy="170" r="4" fill="#818CF8"/>
    <circle cx="1043" cy="178" r="4" fill="#C084FC"/>
  </g>

  <g>
    <rect x="748" y="218" width="188" height="44" rx="16" fill="#0F172A" fill-opacity="0.95" stroke="#24344C"/>
    <text x="768" y="236" fill="#94A3B8" font-family="ui-monospace, SFMono-Regular, Menlo, Monaco, Consolas, Liberation Mono, monospace" font-size="10.5">CI / QUALITY GATES</text>
    <text x="768" y="250" fill="#E2E8F0" font-family="ui-monospace, SFMono-Regular, Menlo, Monaco, Consolas, Liberation Mono, monospace" font-size="12.5">test → review → ship</text>
  </g>

  <g>
    <rect x="954" y="218" width="142" height="44" rx="16" fill="#0F172A" fill-opacity="0.95" stroke="#24344C"/>
    <text x="974" y="236" fill="#94A3B8" font-family="Inter, ui-sans-serif, system-ui, -apple-system, BlinkMacSystemFont, Segoe UI, sans-serif" font-size="11.5" font-weight="520">tooling</text>
    <text x="974" y="250" fill="#E2E8F0" font-family="Inter, ui-sans-serif, system-ui, -apple-system, BlinkMacSystemFont, Segoe UI, sans-serif" font-size="13.5" font-weight="540">design · build · run</text>
  </g>

  <path d="M902 143C916 131 928 128 946 127" stroke="url(#accent)" stroke-opacity="0.55" stroke-width="2.5" stroke-linecap="round"/>
  <path d="M1019 184C1035 184 1046 188 1056 196" stroke="url(#accent)" stroke-opacity="0.4" stroke-width="2.5" stroke-linecap="round"/>
  <path d="M860 205C872 210 878 214 882 220" stroke="url(#accent)" stroke-opacity="0.3" stroke-width="2.5" stroke-linecap="round"/>
</svg>
